# xmcd CD database file
# 
# Track frame offsets:
# 	150
# 	13061
# 	23656
# 	36663
# 	51240
# 	62785
# 	74068
# 	84629
# 	97410
# 	110371
# 	124855
# 	142299
# 	156285
# 	166361
# 	178409
# 	187893
# 	196775
# 	211089
# 	222652
# 	235975
# 
# Disc length: 3309 seconds
# 
# Submitted via: Nero 6, 0, 0, 28
# 
# Revision: 0
# Processed by: cddbd v1.4PL0 Copyright (c) Steve Scherf et al.
#
DISCID=3b0ceb14
DTITLE=Various Artist - Country Roads Vol 9
DYEAR=1900
DGENRE=
TTITLE0=Kenny Rogers - Ruby, Don't Take Your Love To Town
TTITLE1=Billie Jo Spears - Misty Blue
TTITLE2=Roy Clark - Come Live With Me
TTITLE3=George Jones - Who's Gonna Fill Their Shoes
TTITLE4=Patsy Cline - A Poor Man's Roses Or A Rich Man's Gold
TTITLE5=Freddy Fender - Before The Next Tear Drop Falls
TTITLE6=The Bellamy Brothers - Sugar Daddy (Live)
TTITLE7=Lorrie and George Morgan - I'm Completely Satisfied With You
TTITLE8=Johnny Tillotson - Send Me The Pillow That You Dream On
TTITLE9=Don Gibson - I Can't Stop Loving You
TTITLE10=Crystal Gayle - Our Love Is On The Fault Line
TTITLE11=T. Graham Brown - Come Hell Or High Water
TTITLE12=Freddy Weller - The Roadmaster
TTITLE13=Merle Haggard - Working Man Blues
TTITLE14=Jeannie C. Riley - The Girl Most Likely
TTITLE15=Roger Miller - Chug-A-Lug
TTITLE16=Pete Drake - Lay Lady Lay
TTITLE17=Boxcar Willie - Six Days On The Road
TTITLE18=Becky Hobbs - Mama's Green Eyes
TTITLE19=Charlie Rich - Behind Closed Doors
EXTD=
EXTT0=
EXTT1=
EXTT2=
EXTT3=
EXTT4=
EXTT5=
EXTT6=
EXTT7=
EXTT8=
EXTT9=
EXTT10=
EXTT11=
EXTT12=
EXTT13=
EXTT14=
EXTT15=
EXTT16=
EXTT17=
EXTT18=
EXTT19=
PLAYORDER=
